<svg id="visual" viewBox="0 0 900 200" width="900" height="200" xmlns="http://www.w3.org/2000/svg" xmlns:xlink="http://www.w3.org/1999/xlink" version="1.1"><path d="M0 69L21.5 70.8C43 72.7 86 76.3 128.8 73.8C171.7 71.3 214.3 62.7 257.2 63.2C300 63.7 343 73.3 385.8 78.8C428.7 84.3 471.3 85.7 514.2 85.2C557 84.7 600 82.3 642.8 82.7C685.7 83 728.3 86 771.2 81C814 76 857 63 878.5 56.5L900 50L900 201L878.5 201C857 201 814 201 771.2 201C728.3 201 685.7 201 642.8 201C600 201 557 201 514.2 201C471.3 201 428.7 201 385.8 201C343 201 300 201 257.2 201C214.3 201 171.7 201 128.8 201C86 201 43 201 21.5 201L0 201Z" fill="#00aaff"></path><path d="M0 103L21.5 102.3C43 101.7 86 100.3 128.8 101.2C171.7 102 214.3 105 257.2 100.3C300 95.7 343 83.3 385.8 84C428.7 84.7 471.3 98.3 514.2 100C557 101.7 600 91.3 642.8 86C685.7 80.7 728.3 80.3 771.2 82.7C814 85 857 90 878.5 92.5L900 95L900 201L878.5 201C857 201 814 201 771.2 201C728.3 201 685.7 201 642.8 201C600 201 557 201 514.2 201C471.3 201 428.7 201 385.8 201C343 201 300 201 257.2 201C214.3 201 171.7 201 128.8 201C86 201 43 201 21.5 201L0 201Z" fill="#0094de"></path><path d="M0 120L21.5 120.5C43 121 86 122 128.8 124C171.7 126 214.3 129 257.2 130.3C300 131.7 343 131.3 385.8 125.8C428.7 120.3 471.3 109.7 514.2 110.2C557 110.7 600 122.3 642.8 124.3C685.7 126.3 728.3 118.7 771.2 115.3C814 112 857 113 878.5 113.5L900 114L900 201L878.5 201C857 201 814 201 771.2 201C728.3 201 685.7 201 642.8 201C600 201 557 201 514.2 201C471.3 201 428.7 201 385.8 201C343 201 300 201 257.2 201C214.3 201 171.7 201 128.8 201C86 201 43 201 21.5 201L0 201Z" fill="#007fbe"></path><path d="M0 155L21.5 151.7C43 148.3 86 141.7 128.8 139.3C171.7 137 214.3 139 257.2 137.5C300 136 343 131 385.8 133.5C428.7 136 471.3 146 514.2 147.2C557 148.3 600 140.7 642.8 134.8C685.7 129 728.3 125 771.2 123.7C814 122.3 857 123.7 878.5 124.3L900 125L900 201L878.5 201C857 201 814 201 771.2 201C728.3 201 685.7 201 642.8 201C600 201 557 201 514.2 201C471.3 201 428.7 201 385.8 201C343 201 300 201 257.2 201C214.3 201 171.7 201 128.8 201C86 201 43 201 21.5 201L0 201Z" fill="#006a9f"></path><path d="M0 165L21.5 167C43 169 86 173 128.8 174.2C171.7 175.3 214.3 173.7 257.2 173C300 172.3 343 172.7 385.8 173.7C428.7 174.7 471.3 176.3 514.2 174.2C557 172 600 166 642.8 163.8C685.7 161.7 728.3 163.3 771.2 162.8C814 162.3 857 159.7 878.5 158.3L900 157L900 201L878.5 201C857 201 814 201 771.2 201C728.3 201 685.7 201 642.8 201C600 201 557 201 514.2 201C471.3 201 428.7 201 385.8 201C343 201 300 201 257.2 201C214.3 201 171.7 201 128.8 201C86 201 43 201 21.5 201L0 201Z" fill="#005681"></path></svg>